<svg width="25" height="25" viewBox="0 0 25 25" fill="none" xmlns="http://www.w3.org/2000/svg">
<path d="M9.20533 6.46967H16.1873M10.7015 17.4413H14.6912M12.6963 19.4362V15.4465M15.6886 11.63C18.0474 12.7505 19.6783 15.1548 19.6783 17.94V19.9349C19.6783 21.0366 18.7851 21.9297 17.6834 21.9297H7.7092C6.60748 21.9297 5.71436 21.0366 5.71436 19.9349V17.94C5.71436 15.1548 7.34519 12.7505 9.70404 11.63M12.6963 12.4542C10.7683 12.4542 9.20533 10.8912 9.20533 8.96323V4.47483C9.20533 3.3731 10.0985 2.47998 11.2002 2.47998H14.1924C15.2942 2.47998 16.1873 3.3731 16.1873 4.47483V8.96323C16.1873 10.8912 14.6243 12.4542 12.6963 12.4542Z" stroke="black" stroke-width="1.06055" stroke-linecap="round" stroke-linejoin="round"/>
</svg>
