<svg width="26" height="26" viewBox="0 0 26 26" fill="none" xmlns="http://www.w3.org/2000/svg">
<path d="M3.07153 15.1046H9.71891C10.7416 15.1046 11.7643 16.6386 12.7869 16.6386C13.6709 16.6386 15.3188 15.8746 16.0798 17.3181C16.3204 17.7744 15.9991 18.2957 15.5227 18.4932C14.4192 18.9507 13.19 19.5723 12.7869 19.7066L9.71891 18.684M16.3663 17.6613L21.046 15.7894C21.3301 15.6758 21.6391 15.6387 21.942 15.682C23.0125 15.8349 23.3149 17.2372 22.4026 17.8177L14.5854 22.7923C14.092 23.1063 13.4878 23.194 12.9254 23.0334L3.07153 20.218M12.7869 13.0593C10.8183 12.3662 7.16223 9.38694 7.16223 6.10973C7.16223 4.29979 8.54727 2.83252 10.2558 2.83252C11.3021 2.83252 12.2271 3.38276 12.7869 4.22498C13.3468 3.38276 14.2718 2.83252 15.318 2.83252C17.0266 2.83252 18.4116 4.29979 18.4116 6.10973C18.4116 9.38694 14.7556 12.3662 12.7869 13.0593Z" stroke="black" stroke-width="1.06055" stroke-linecap="round" stroke-linejoin="round"/>
</svg>
