<svg width="70" height="66" viewBox="0 0 70 66" fill="none" xmlns="http://www.w3.org/2000/svg">
<g clip-path="url(#clip0_322_1947)">
<path d="M45.5856 61.3699C51.0236 66.5037 59.8401 66.5037 65.2781 61.3699C70.716 56.236 70.716 47.9124 65.2781 42.7786L24.2708 4.06425C18.8328 -1.06959 10.0162 -1.06959 4.57834 4.06425C-0.859575 9.19809 -0.859569 17.5217 4.57834 22.6555L45.5856 61.3699Z" fill="white"/>
<path d="M65.2775 22.6542C70.7142 17.5216 70.7142 9.19672 65.2775 4.06405C64.9657 3.76969 64.6418 3.49248 64.3088 3.23242V23.5688L65.2775 22.6542Z" fill="white"/>
<path d="M10.9138 36.7978V64.796C12.6907 65.2304 14.5373 65.3304 16.3444 65.0961V31.6709L10.9138 36.7978Z" fill="white"/>
<path d="M4.57506 42.7798C-0.861607 47.9125 -0.861607 56.2373 4.57506 61.37C4.9262 61.7015 5.28945 62.0073 5.66481 62.2959V41.751L4.57506 42.7798Z" fill="white"/>
<path d="M21.5903 26.7158V63.3475C22.5439 62.8045 23.4459 62.1501 24.2663 61.3727L27.0209 58.7721V21.5889L21.5903 26.7158Z" fill="white"/>
<path d="M32.27 16.6328V53.816L37.7037 48.6891V11.5059L32.27 16.6328Z" fill="white"/>
<path d="M45.583 4.06386L42.9495 6.55017V43.7334L48.3801 38.6065V2.02051C47.3811 2.57493 46.4397 3.25509 45.583 4.06386Z" fill="white"/>
<path d="M53.6292 0.326331V33.6515L59.0598 28.5246V0.669271C57.2859 0.217734 55.4394 0.10342 53.6292 0.326331Z" fill="white"/>
</g>
<defs>
<clipPath id="clip0_322_1947">
<rect width="68.8573" height="65.0071" fill="white" transform="translate(0.497559 0.214844)"/>
</clipPath>
</defs>
</svg>
