<svg width="44" height="44" viewBox="0 0 44 44" fill="none" xmlns="http://www.w3.org/2000/svg">
<g clip-path="url(#clip0_84_921)">
<path d="M28.8113 41.3928C32.2861 44.8677 37.9199 44.8677 41.3948 41.3928C44.8696 37.918 44.8696 32.2842 41.3948 28.8093L15.191 2.60556C11.7162 -0.869276 6.08235 -0.869279 2.60751 2.60556C-0.867327 6.08039 -0.867324 11.7142 2.60751 15.1891L28.8113 41.3928Z" fill="black"/>
<path d="M41.3944 15.1881C44.8684 11.7141 44.8684 6.07941 41.3944 2.60537C41.1951 2.40613 40.9882 2.2185 40.7754 2.04248V15.8071L41.3944 15.1881Z" fill="black"/>
<path d="M6.65601 24.7612V43.7117C7.79145 44.0057 8.97139 44.0734 10.1262 43.9148V21.291L6.65601 24.7612Z" fill="black"/>
<path d="M2.60553 28.8096C-0.86851 32.2837 -0.86851 37.9184 2.60553 41.3924C2.82991 41.6168 3.06203 41.8237 3.30189 42.0191V28.1133L2.60553 28.8096Z" fill="black"/>
<path d="M13.4783 17.937V42.7311C14.0876 42.3636 14.664 41.9206 15.1882 41.3945L16.9484 39.6342V14.4668L13.4783 17.937Z" fill="black"/>
<path d="M20.3027 11.1128V36.2802L23.7748 32.81V7.64258L20.3027 11.1128Z" fill="black"/>
<path d="M28.8098 2.6057L27.127 4.28855V29.456L30.5971 25.9858V1.22266C29.9588 1.59791 29.3572 2.05828 28.8098 2.6057Z" fill="black"/>
<path d="M33.9512 0.0752875V22.6314L37.4213 19.1612V0.307406C36.2878 0.00178329 35.1079 -0.0755895 33.9512 0.0752875Z" fill="black"/>
</g>
<defs>
<clipPath id="clip0_84_921">
<rect width="44" height="44" fill="white"/>
</clipPath>
</defs>
</svg>
