<svg width="26" height="26" viewBox="0 0 26 26" fill="none" xmlns="http://www.w3.org/2000/svg">
<path d="M17.0897 4.96918H18.1124C19.242 4.96918 20.1578 5.88491 20.1578 7.01452V20.3093C20.1578 21.4389 19.242 22.3546 18.1124 22.3546H7.88568C6.75607 22.3546 5.84033 21.4389 5.84033 20.3093V7.01452C5.84033 5.88491 6.75607 4.96918 7.88568 4.96918H8.90835M17.0897 4.96918C17.0897 6.09879 16.174 7.01452 15.0444 7.01452H10.9537C9.82409 7.01452 8.90835 6.09879 8.90835 4.96918M17.0897 4.96918C17.0897 3.83956 16.174 2.92383 15.0444 2.92383H10.9537C9.82409 2.92383 8.90835 3.83956 8.90835 4.96918M8.90839 14.1732H10.4424L11.9764 16.7299L14.0218 11.6166L15.5558 14.6846H17.0898" stroke="black" stroke-width="1.06055" stroke-linecap="round" stroke-linejoin="round"/>
</svg>
